<?xml version="1.0" encoding="utf-8"?>
<!-- Generator: Adobe Illustrator 16.0.0, SVG Export Plug-In . SVG Version: 6.00 Build 0)  -->
<!DOCTYPE svg PUBLIC "-//W3C//DTD SVG 1.1//EN" "http://www.w3.org/Graphics/SVG/1.1/DTD/svg11.dtd">
<svg version="1.1" id="Layer_1" xmlns="http://www.w3.org/2000/svg" xmlns:xlink="http://www.w3.org/1999/xlink" x="0px" y="0px"
	 width="356px" height="356px" viewBox="0 0 356 356" enable-background="new 0 0 356 356" xml:space="preserve">
<path fill-rule="evenodd" clip-rule="evenodd" d="M0,50h16v85.333H0V50z"/>
<path fill-rule="evenodd" clip-rule="evenodd" fill="#ED1F24" d="M0,134.988h16v87.023H0V134.988z"/>
<path fill-rule="evenodd" clip-rule="evenodd" fill="#FFCD05" d="M0,222.041h16V306H0V222.041z"/>
<path d="M55.984,174.441c2.65,0,4.845-0.742,6.585-2.227c1.74-1.484,2.61-3.424,2.61-5.82c0-1.927-0.574-3.493-1.721-4.697
	c-1.147-1.204-2.677-1.917-4.588-2.139v-0.078c1.529-0.495,2.729-1.328,3.599-2.5s1.305-2.552,1.305-4.141
	c0-1.901-0.719-3.444-2.156-4.629c-1.437-1.185-3.381-1.777-5.833-1.777h-8.069v28.008H55.984z M54.857,149.402
	c3.625,0,5.438,1.361,5.438,4.082c0,1.576-0.521,2.796-1.563,3.662c-1.042,0.866-2.472,1.299-4.291,1.299H51.04v-9.043H54.857z
	 M54.857,161.395c4.562,0,6.842,1.654,6.842,4.961c0,1.589-0.537,2.839-1.611,3.75c-1.075,0.912-2.588,1.367-4.539,1.367H51.04
	v-10.078H54.857z"/>
<path d="M86.874,154.441h-3.243v11.523c0,1.862-0.511,3.369-1.533,4.521c-1.022,1.152-2.324,1.729-3.906,1.729
	c-3.27,0-4.904-2.109-4.904-6.328v-11.445h-3.224v11.953c0,5.677,2.413,8.516,7.238,8.516c2.821,0,4.904-1.211,6.249-3.633h0.079
	v3.164h3.243V154.441z"/>
<path d="M110.229,162.215c0-2.669-0.587-4.71-1.76-6.123c-1.173-1.413-2.867-2.119-5.082-2.119c-2.901,0-5.116,1.263-6.645,3.789
	h-0.079v-3.32H93.42v20h3.243v-11.406c0-1.836,0.531-3.356,1.592-4.561c1.062-1.204,2.403-1.807,4.024-1.807
	c3.138,0,4.707,2.123,4.707,6.367v11.406h3.243V162.215z"/>
<path d="M133.625,144.832h-3.244v12.383h-0.079c-1.266-2.161-3.29-3.242-6.071-3.242c-2.809,0-5.056,0.996-6.744,2.988
	c-1.688,1.992-2.531,4.642-2.531,7.949c0,3.086,0.761,5.524,2.284,7.314c1.522,1.791,3.556,2.686,6.101,2.686
	c3.138,0,5.458-1.289,6.961-3.867h0.079v3.398h3.244V144.832z M128.69,170.281c-1.127,1.289-2.594,1.934-4.4,1.934
	c-1.833,0-3.292-0.667-4.38-2.002c-1.087-1.334-1.631-3.154-1.631-5.459c0-2.526,0.566-4.505,1.701-5.938
	c1.134-1.432,2.689-2.148,4.667-2.148c1.661,0,3.032,0.56,4.113,1.68c1.081,1.12,1.622,2.487,1.622,4.102v2.949
	C130.381,167.365,129.817,168.992,128.69,170.281z"/>
<path d="M156.465,163.563c0-3.008-0.725-5.358-2.175-7.051c-1.45-1.692-3.5-2.539-6.15-2.539c-2.65,0-4.868,0.98-6.654,2.939
	c-1.787,1.96-2.68,4.496-2.68,7.607c0,3.294,0.817,5.85,2.452,7.666s3.882,2.725,6.744,2.725c2.927,0,5.28-0.638,7.06-1.914v-3.008
	c-1.912,1.484-4.008,2.227-6.289,2.227c-2.03,0-3.625-0.605-4.786-1.816s-1.767-2.93-1.819-5.156h14.298V163.563z M142.207,162.527
	c0.25-1.745,0.91-3.157,1.978-4.238c1.068-1.081,2.366-1.621,3.896-1.621c1.582,0,2.818,0.515,3.708,1.543
	c0.89,1.029,1.341,2.468,1.354,4.316H142.207z"/>
<path d="M165.563,174.91c1.055,0,2.063-0.117,3.025-0.352s1.813-0.592,2.551-1.074c0.738-0.481,1.328-1.087,1.77-1.816
	c0.441-0.729,0.663-1.588,0.663-2.578c0-0.807-0.136-1.504-0.406-2.09s-0.656-1.104-1.157-1.553s-1.107-0.853-1.819-1.211
	c-0.712-0.358-1.516-0.706-2.413-1.045c-0.672-0.26-1.272-0.501-1.8-0.723c-0.527-0.221-0.976-0.469-1.345-0.742
	s-0.649-0.586-0.84-0.938c-0.191-0.352-0.287-0.788-0.287-1.309c0-0.417,0.095-0.797,0.287-1.143
	c0.191-0.345,0.461-0.641,0.811-0.889c0.349-0.247,0.768-0.439,1.256-0.576s1.035-0.205,1.642-0.205
	c1.938,0,3.652,0.482,5.142,1.445v-3.242c-1.384-0.599-2.954-0.898-4.707-0.898c-0.989,0-1.948,0.124-2.877,0.371
	c-0.93,0.248-1.757,0.615-2.482,1.104s-1.305,1.094-1.74,1.816s-0.653,1.553-0.653,2.49c0,0.769,0.116,1.439,0.346,2.012
	c0.23,0.573,0.574,1.084,1.028,1.533c0.455,0.449,1.021,0.853,1.701,1.211c0.679,0.358,1.467,0.713,2.363,1.064
	c0.646,0.248,1.249,0.485,1.81,0.713c0.56,0.228,1.048,0.485,1.463,0.771c0.416,0.287,0.745,0.615,0.989,0.986
	c0.244,0.371,0.366,0.824,0.366,1.357c0,1.875-1.424,2.813-4.271,2.813c-2.123,0-4.067-0.645-5.834-1.934v3.438
	C161.673,174.513,163.479,174.91,165.563,174.91L165.563,174.91z"/>
<path d="M187.949,171.512c-0.593,0.443-1.299,0.664-2.116,0.664c-1.068,0-1.833-0.286-2.294-0.859
	c-0.461-0.573-0.692-1.53-0.692-2.871v-11.27h5.103v-2.734h-5.103v-5.918l-3.243,1.035v4.883h-3.48v2.734h3.48v11.836
	c0,3.906,1.773,5.859,5.32,5.859c1.252,0,2.261-0.208,3.026-0.625V171.512z"/>
<path d="M206.775,161.434c0-4.974-2.38-7.461-7.139-7.461c-2.598,0-4.892,0.625-6.882,1.875v3.281
	c1.964-1.641,4.166-2.461,6.605-2.461c2.782,0,4.173,1.699,4.173,5.098l-6.071,0.84c-4.457,0.612-6.685,2.787-6.685,6.523
	c0,1.745,0.57,3.145,1.711,4.199c1.14,1.055,2.719,1.582,4.736,1.582c2.742,0,4.818-1.198,6.229-3.594h0.079v3.125h3.243V161.434z
	 M203.532,166.316c0,1.706-0.524,3.115-1.572,4.229c-1.048,1.113-2.376,1.67-3.985,1.67c-1.174,0-2.113-0.309-2.818-0.928
	c-0.705-0.618-1.058-1.416-1.058-2.393c0-1.341,0.382-2.275,1.147-2.803c0.764-0.527,1.898-0.895,3.401-1.104l4.885-0.664V166.316z"
	/>
<path d="M230.17,154.441h-3.243v2.773h-0.079c-1.318-2.161-3.342-3.242-6.071-3.242c-2.874,0-5.139,1.003-6.793,3.008
	c-1.654,2.005-2.482,4.707-2.482,8.105c0,2.995,0.768,5.381,2.304,7.158c1.536,1.777,3.563,2.666,6.081,2.666
	c3.098,0,5.418-1.276,6.961-3.828h0.079v2.188c0,5.234-2.492,7.852-7.475,7.852c-2.07,0-4.246-0.625-6.526-1.875v3.203
	c1.872,0.938,4.061,1.406,6.566,1.406c7.119,0,10.679-3.672,10.679-11.016V154.441z M225.216,170.301
	c-1.141,1.276-2.621,1.914-4.44,1.914c-1.793,0-3.233-0.667-4.321-2.002c-1.088-1.334-1.631-3.115-1.631-5.342
	c0-2.591,0.566-4.606,1.701-6.045c1.133-1.438,2.702-2.158,4.707-2.158c1.622,0,2.976,0.566,4.064,1.699
	c1.087,1.133,1.631,2.494,1.631,4.082v2.949C226.927,167.391,226.356,169.025,225.216,170.301z"/>
<path d="M240.928,174.91c1.055,0,2.063-0.117,3.026-0.352c0.962-0.234,1.813-0.592,2.551-1.074c0.738-0.481,1.328-1.087,1.77-1.816
	c0.441-0.729,0.663-1.588,0.663-2.578c0-0.807-0.135-1.504-0.405-2.09c-0.271-0.586-0.656-1.104-1.157-1.553
	s-1.107-0.853-1.819-1.211c-0.712-0.358-1.516-0.706-2.413-1.045c-0.672-0.26-1.272-0.501-1.8-0.723
	c-0.527-0.221-0.976-0.469-1.345-0.742s-0.649-0.586-0.84-0.938c-0.191-0.352-0.287-0.788-0.287-1.309
	c0-0.417,0.095-0.797,0.287-1.143c0.191-0.345,0.461-0.641,0.811-0.889c0.35-0.247,0.768-0.439,1.256-0.576s1.035-0.205,1.642-0.205
	c1.938,0,3.652,0.482,5.142,1.445v-3.242c-1.384-0.599-2.953-0.898-4.707-0.898c-0.989,0-1.948,0.124-2.877,0.371
	c-0.929,0.248-1.757,0.615-2.482,1.104s-1.305,1.094-1.74,1.816s-0.652,1.553-0.652,2.49c0,0.769,0.115,1.439,0.346,2.012
	c0.23,0.573,0.574,1.084,1.029,1.533c0.455,0.449,1.021,0.853,1.701,1.211c0.679,0.358,1.466,0.713,2.363,1.064
	c0.646,0.248,1.249,0.485,1.81,0.713c0.561,0.228,1.048,0.485,1.463,0.771c0.416,0.287,0.745,0.615,0.989,0.986
	s0.366,0.824,0.366,1.357c0,1.875-1.424,2.813-4.272,2.813c-2.123,0-4.067-0.645-5.833-1.934v3.438
	C237.039,174.513,238.845,174.91,240.928,174.91L240.928,174.91z"/>
<path d="M276.228,154.441l-4.113,15.078c-0.198,0.69-0.31,1.289-0.336,1.797h-0.158c-0.066-0.716-0.165-1.315-0.296-1.797
	l-4.192-15.078h-2.966l-4.667,15c-0.198,0.651-0.316,1.263-0.356,1.836h-0.158c-0.053-0.742-0.145-1.341-0.277-1.797l-4.192-15.039
	h-3.401l6.13,20h3.243l4.529-14.355c0.237-0.742,0.376-1.348,0.416-1.816h0.079c0.052,0.69,0.158,1.309,0.316,1.855l4.172,14.316
	h3.362l6.071-20H276.228z"/>
<path d="M297.685,161.434c0-4.974-2.38-7.461-7.139-7.461c-2.598,0-4.892,0.625-6.882,1.875v3.281
	c1.964-1.641,4.166-2.461,6.605-2.461c2.782,0,4.173,1.699,4.173,5.098l-6.071,0.84c-4.457,0.612-6.684,2.787-6.684,6.523
	c0,1.745,0.57,3.145,1.71,4.199c1.14,1.055,2.719,1.582,4.736,1.582c2.742,0,4.818-1.198,6.229-3.594h0.079v3.125h3.243V161.434z
	 M294.442,166.316c0,1.706-0.524,3.115-1.572,4.229c-1.048,1.113-2.376,1.67-3.985,1.67c-1.174,0-2.113-0.309-2.818-0.928
	c-0.705-0.618-1.058-1.416-1.058-2.393c0-1.341,0.382-2.275,1.147-2.803c0.764-0.527,1.898-0.895,3.401-1.104l4.885-0.664V166.316z"
	/>
<path d="M320.605,162.117c0-5.43-2.281-8.145-6.842-8.145c-2.875,0-5.089,1.263-6.645,3.789h-0.079v-12.93h-3.244v29.609h3.244
	v-11.328c0-1.888,0.541-3.434,1.622-4.639c1.081-1.204,2.413-1.807,3.995-1.807c3.138,0,4.707,2.083,4.707,6.25v11.523h3.243
	V162.117z"/>
<path d="M329.959,144.832h-3.243v29.609h3.243V144.832z"/>
<path d="M59,195.955c-0.178,0.684-0.478,1.357-0.9,2.021s-0.979,1.328-1.671,1.992c-0.692,0.664-1.553,1.361-2.581,2.09
	c-1.424,1.029-2.627,1.953-3.609,2.773c-0.982,0.82-1.777,1.641-2.383,2.461c-0.607,0.82-1.042,1.687-1.305,2.598
	c-0.264,0.912-0.396,1.966-0.396,3.164v1.387h17.501v-2.871h-14.12c0-0.755,0.102-1.422,0.307-2.002
	c0.204-0.579,0.56-1.159,1.068-1.738c0.507-0.579,1.193-1.201,2.057-1.865c0.863-0.664,1.961-1.465,3.293-2.402
	c1.068-0.755,1.997-1.497,2.788-2.227c0.791-0.729,1.447-1.491,1.968-2.285c0.521-0.794,0.91-1.641,1.167-2.539
	c0.257-0.898,0.386-1.901,0.386-3.008c0-1.211-0.208-2.285-0.623-3.223c-0.416-0.938-0.986-1.725-1.711-2.363
	c-0.725-0.638-1.582-1.123-2.571-1.455s-2.063-0.498-3.223-0.498c-1.622,0-2.996,0.231-4.124,0.693
	c-1.127,0.462-2.146,1.13-3.055,2.002v3.438c0.461-0.508,0.959-0.97,1.493-1.387c0.534-0.417,1.088-0.774,1.662-1.074
	c0.573-0.299,1.163-0.534,1.77-0.703c0.606-0.169,1.226-0.254,1.859-0.254c0.738,0,1.424,0.104,2.057,0.313
	c0.633,0.208,1.183,0.524,1.651,0.947c0.468,0.423,0.837,0.954,1.108,1.592c0.27,0.638,0.405,1.387,0.405,2.246
	C59.267,194.546,59.178,195.271,59,195.955z"/>
<path d="M77.085,185.965c-1.542,0-2.91,0.322-4.104,0.967s-2.192,1.602-2.996,2.871s-1.414,2.842-1.829,4.717
	s-0.623,4.037-0.623,6.484c0,2.227,0.198,4.203,0.593,5.928c0.396,1.726,0.976,3.181,1.74,4.365
	c0.765,1.185,1.704,2.087,2.818,2.705c1.114,0.618,2.383,0.928,3.807,0.928c1.503,0,2.844-0.322,4.024-0.967
	c1.18-0.645,2.175-1.588,2.986-2.832c0.811-1.243,1.43-2.77,1.859-4.58c0.428-1.81,0.643-3.887,0.643-6.23
	C86.004,190.75,83.031,185.965,77.085,185.965L77.085,185.965z M76.808,212.195c-3.968,0-5.953-3.782-5.953-11.348
	c0-8.112,2.024-12.168,6.071-12.168c3.836,0,5.755,3.984,5.755,11.953C82.682,208.341,80.724,212.195,76.808,212.195L76.808,212.195
	z"/>
<path d="M101.983,185.809h-1.226c-0.501,0.43-1.095,0.869-1.78,1.318c-0.686,0.449-1.414,0.879-2.186,1.289
	c-0.771,0.41-1.556,0.781-2.353,1.113c-0.798,0.332-1.552,0.596-2.264,0.791v3.242c0.633-0.156,1.282-0.371,1.948-0.645
	c0.666-0.273,1.298-0.566,1.898-0.879c0.6-0.313,1.14-0.628,1.622-0.947c0.481-0.319,0.847-0.602,1.098-0.85v24.199h3.243V185.809z"
	/>
<path d="M129.471,186.434h-18.035v2.891h14.219c-0.33,0.56-0.768,1.338-1.315,2.334c-0.547,0.996-1.151,2.146-1.81,3.447
	c-0.66,1.302-1.338,2.728-2.037,4.277c-0.699,1.55-1.361,3.161-1.987,4.834c-0.626,1.673-1.187,3.379-1.681,5.117
	s-0.86,3.441-1.098,5.107h3.48c0.211-1.68,0.55-3.389,1.019-5.127c0.468-1.738,1.012-3.454,1.632-5.146
	c0.619-1.692,1.285-3.333,1.997-4.922c0.712-1.588,1.411-3.073,2.096-4.453c0.686-1.38,1.335-2.624,1.948-3.73
	c0.613-1.106,1.137-2.031,1.572-2.773V186.434z"/>
<path d="M77.393,57.992l-5.737,21.563c-0.3,1.12-0.477,2.019-0.528,2.695h-0.079c-0.104-1.002-0.261-1.875-0.47-2.617l-5.952-21.641
	h-3.152l-6.207,21.484c-0.34,1.185-0.542,2.123-0.607,2.813h-0.098c-0.065-0.977-0.222-1.914-0.47-2.813l-5.972-21.484h-3.623
	L52.723,86h3.818l5.815-20.508c0.261-0.911,0.431-1.849,0.509-2.813h0.078c0.052,1.029,0.203,1.979,0.451,2.852L69.169,86h3.857
	l7.93-28.008H77.393z"/>
<path d="M97.56,72.992c0-4.974-2.356-7.461-7.068-7.461c-2.571,0-4.843,0.625-6.813,1.875v3.281c1.945-1.641,4.125-2.461,6.54-2.461
	c2.754,0,4.131,1.699,4.131,5.098l-6.011,0.84c-4.412,0.612-6.618,2.787-6.618,6.523c0,1.745,0.564,3.145,1.694,4.199
	c1.129,1.055,2.692,1.582,4.689,1.582c2.715,0,4.771-1.198,6.168-3.594h0.078V86h3.211V72.992z M94.349,77.875
	c0,1.706-0.519,3.115-1.557,4.229s-2.353,1.67-3.945,1.67c-1.162,0-2.092-0.309-2.79-0.928c-0.698-0.618-1.047-1.416-1.047-2.393
	c0-1.341,0.378-2.275,1.136-2.803c0.757-0.527,1.879-0.895,3.368-1.104l4.836-0.664V77.875z"/>
<path d="M120.252,73.676c0-5.43-2.258-8.145-6.774-8.145c-2.846,0-5.039,1.263-6.579,3.789h-0.078v-12.93h-3.211V86h3.211V74.672
	c0-1.888,0.535-3.434,1.605-4.639c1.07-1.204,2.389-1.807,3.955-1.807c3.106,0,4.66,2.083,4.66,6.25V86h3.211V73.676z"/>
<path d="M129.513,56.391h-3.211V86h3.211V56.391z"/>
<path d="M139.156,60.316c0.411-0.403,0.617-0.892,0.617-1.465c0-0.599-0.206-1.097-0.617-1.494c-0.411-0.397-0.91-0.596-1.498-0.596
	c-0.575,0-1.064,0.199-1.469,0.596c-0.405,0.397-0.607,0.896-0.607,1.494c0,0.599,0.202,1.094,0.607,1.484s0.894,0.586,1.469,0.586
	C138.246,60.922,138.745,60.72,139.156,60.316z M139.225,66h-3.211v20h3.211V66z"/>
<path d="M162.368,73.773c0-2.669-0.581-4.71-1.743-6.123c-1.162-1.413-2.839-2.119-5.032-2.119c-2.872,0-5.064,1.263-6.579,3.789
	h-0.078V66h-3.211v20h3.211V74.594c0-1.836,0.525-3.356,1.576-4.561c1.051-1.204,2.379-1.807,3.985-1.807
	c3.106,0,4.66,2.123,4.66,6.367V86h3.211V73.773z"/>
<path d="M178.325,56.313c-0.575-0.234-1.351-0.352-2.33-0.352c-1.814,0-3.329,0.609-4.542,1.826
	c-1.214,1.218-1.821,2.875-1.821,4.971V66h-3.426v2.734h3.426V86h3.191V68.734h4.699V66h-4.699v-3.086
	c0-2.825,1.123-4.238,3.368-4.238c0.796,0,1.508,0.176,2.134,0.527V56.313z"/>
<path d="M196.622,83.588c1.808-1.92,2.712-4.476,2.712-7.666c0-3.255-0.839-5.801-2.516-7.637s-4.011-2.754-7-2.754
	c-3.133,0-5.619,0.944-7.46,2.832c-1.84,1.888-2.761,4.512-2.761,7.871c0,3.086,0.884,5.563,2.653,7.432
	c1.769,1.869,4.134,2.803,7.098,2.803C192.39,86.469,194.814,85.509,196.622,83.588z M194.371,70.258
	c1.116,1.354,1.674,3.281,1.674,5.781c0,2.474-0.558,4.382-1.674,5.723c-1.116,1.341-2.712,2.012-4.787,2.012
	c-2.037,0-3.662-0.684-4.875-2.051s-1.821-3.235-1.821-5.605c0-2.461,0.6-4.391,1.801-5.791c1.201-1.399,2.833-2.1,4.895-2.1
	C191.659,68.227,193.254,68.904,194.371,70.258z"/>
<path d="M214.919,65.922c-0.444-0.182-1.083-0.273-1.918-0.273c-1.162,0-2.212,0.394-3.152,1.182
	c-0.94,0.788-1.638,1.885-2.095,3.291h-0.078V66h-3.211v20h3.211V75.805c0-2.227,0.46-3.984,1.38-5.273s2.065-1.934,3.436-1.934
	c1.058,0,1.867,0.215,2.428,0.645V65.922z"/>
<path d="M246.794,73.676c0-5.43-2.206-8.145-6.618-8.145c-2.95,0-5.169,1.38-6.657,4.141c-0.378-1.237-1.077-2.236-2.095-2.998
	s-2.212-1.143-3.583-1.143c-2.729,0-4.804,1.211-6.227,3.633h-0.078V66h-3.211v20h3.211V74.594c0-1.888,0.457-3.421,1.371-4.6
	c0.914-1.178,2.075-1.768,3.485-1.768c3.042,0,4.562,1.966,4.562,5.898V86h3.211V74.594c0-1.745,0.479-3.242,1.439-4.492
	s2.125-1.875,3.495-1.875c1.618,0,2.771,0.495,3.456,1.484c0.686,0.99,1.028,2.591,1.028,4.805V86h3.211V73.676z"/>
<path d="M267.216,72.992c0-4.974-2.356-7.461-7.068-7.461c-2.572,0-4.843,0.625-6.814,1.875v3.281
	c1.945-1.641,4.125-2.461,6.54-2.461c2.754,0,4.131,1.699,4.131,5.098l-6.011,0.84c-4.412,0.612-6.618,2.787-6.618,6.523
	c0,1.745,0.564,3.145,1.693,4.199s2.692,1.582,4.689,1.582c2.715,0,4.771-1.198,6.167-3.594h0.078V86h3.211V72.992z M264.005,77.875
	c0,1.706-0.519,3.115-1.557,4.229c-1.038,1.113-2.353,1.67-3.945,1.67c-1.162,0-2.092-0.309-2.791-0.928
	c-0.698-0.618-1.047-1.416-1.047-2.393c0-1.341,0.378-2.275,1.136-2.803c0.757-0.527,1.879-0.895,3.368-1.104l4.836-0.664V77.875z"
	/>
<path d="M282.566,83.07c-0.587,0.443-1.286,0.664-2.095,0.664c-1.057,0-1.814-0.286-2.271-0.859
	c-0.457-0.573-0.686-1.53-0.686-2.871v-11.27h5.052V66h-5.052v-5.918l-3.211,1.035V66h-3.446v2.734h3.446V80.57
	c0,3.906,1.755,5.859,5.267,5.859c1.24,0,2.238-0.208,2.996-0.625V83.07z"/>
<path d="M289.997,60.316c0.412-0.403,0.617-0.892,0.617-1.465c0-0.599-0.206-1.097-0.617-1.494c-0.411-0.397-0.91-0.596-1.498-0.596
	c-0.575,0-1.064,0.199-1.469,0.596c-0.404,0.397-0.606,0.896-0.606,1.494c0,0.599,0.202,1.094,0.606,1.484
	c0.405,0.391,0.894,0.586,1.469,0.586C289.086,60.922,289.586,60.72,289.997,60.316z M290.065,66h-3.211v20h3.211V66z"/>
<path d="M312.22,83.588c1.808-1.92,2.711-4.476,2.711-7.666c0-3.255-0.839-5.801-2.516-7.637c-1.678-1.836-4.011-2.754-7-2.754
	c-3.132,0-5.619,0.944-7.459,2.832c-1.841,1.888-2.761,4.512-2.761,7.871c0,3.086,0.884,5.563,2.653,7.432
	c1.769,1.869,4.134,2.803,7.098,2.803C307.987,86.469,310.412,85.509,312.22,83.588z M309.968,70.258
	c1.116,1.354,1.674,3.281,1.674,5.781c0,2.474-0.558,4.382-1.674,5.723c-1.116,1.341-2.711,2.012-4.787,2.012
	c-2.036,0-3.661-0.684-4.875-2.051c-1.214-1.367-1.821-3.235-1.821-5.605c0-2.461,0.601-4.391,1.802-5.791
	c1.201-1.399,2.832-2.1,4.895-2.1C307.256,68.227,308.852,68.904,309.968,70.258z"/>
<path d="M336.704,73.773c0-2.669-0.581-4.71-1.743-6.123c-1.162-1.413-2.839-2.119-5.032-2.119c-2.872,0-5.064,1.263-6.579,3.789
	h-0.079V66h-3.211v20h3.211V74.594c0-1.836,0.525-3.356,1.577-4.561c1.05-1.204,2.379-1.807,3.984-1.807
	c3.106,0,4.66,2.123,4.66,6.367V86h3.211V73.773z"/>
<path d="M346.905,86.469c1.044,0,2.042-0.117,2.996-0.352c0.953-0.234,1.794-0.592,2.526-1.074c0.731-0.481,1.315-1.087,1.752-1.816
	c0.437-0.729,0.656-1.588,0.656-2.578c0-0.807-0.134-1.504-0.401-2.09c-0.268-0.586-0.649-1.104-1.146-1.553
	s-1.097-0.853-1.801-1.211c-0.705-0.358-1.501-0.706-2.389-1.045c-0.666-0.26-1.26-0.501-1.782-0.723
	c-0.522-0.221-0.966-0.469-1.332-0.742c-0.366-0.273-0.643-0.586-0.832-0.938c-0.189-0.352-0.284-0.788-0.284-1.309
	c0-0.417,0.095-0.797,0.284-1.143c0.189-0.345,0.457-0.641,0.803-0.889c0.346-0.247,0.76-0.439,1.243-0.576s1.024-0.205,1.625-0.205
	c1.919,0,3.616,0.482,5.091,1.445V66.43c-1.371-0.599-2.924-0.898-4.66-0.898c-0.979,0-1.929,0.124-2.849,0.371
	c-0.92,0.248-1.739,0.615-2.457,1.104c-0.718,0.488-1.292,1.094-1.723,1.816s-0.646,1.553-0.646,2.49
	c0,0.769,0.114,1.439,0.343,2.012c0.228,0.573,0.567,1.084,1.018,1.533c0.45,0.449,1.011,0.853,1.684,1.211
	c0.672,0.358,1.452,0.713,2.34,1.064c0.639,0.248,1.237,0.485,1.792,0.713c0.555,0.228,1.038,0.485,1.449,0.771
	c0.412,0.287,0.737,0.615,0.979,0.986s0.362,0.824,0.362,1.357c0,1.875-1.41,2.813-4.229,2.813c-2.102,0-4.027-0.645-5.776-1.934
	v3.438C343.054,86.071,344.842,86.469,346.905,86.469L346.905,86.469z"/>
<path d="M47.818,125.541c0.607,0.202,1.25,0.371,1.929,0.508c0.678,0.137,1.344,0.241,1.997,0.313
	c0.652,0.071,1.201,0.107,1.645,0.107c1.332,0,2.598-0.134,3.798-0.4c1.201-0.267,2.262-0.7,3.182-1.299
	c0.92-0.599,1.651-1.377,2.193-2.334c0.542-0.957,0.813-2.125,0.813-3.506c0-1.042-0.199-1.966-0.597-2.773
	c-0.398-0.807-0.937-1.543-1.616-2.207s-1.468-1.27-2.369-1.816c-0.9-0.547-1.854-1.067-2.858-1.563
	c-0.979-0.481-1.844-0.924-2.594-1.328c-0.751-0.403-1.387-0.82-1.909-1.25s-0.917-0.905-1.185-1.426
	c-0.268-0.521-0.401-1.139-0.401-1.855c0-0.768,0.176-1.419,0.529-1.953c0.353-0.534,0.809-0.97,1.371-1.309
	c0.561-0.338,1.201-0.583,1.919-0.732c0.717-0.149,1.436-0.225,2.153-0.225c2.598,0,4.725,0.573,6.383,1.719V98.52
	c-1.267-0.664-3.283-0.996-6.05-0.996c-1.214,0-2.405,0.15-3.573,0.449c-1.168,0.3-2.209,0.755-3.123,1.367
	c-0.914,0.612-1.651,1.39-2.212,2.334c-0.562,0.944-0.842,2.054-0.842,3.33c0,1.042,0.179,1.95,0.539,2.725
	c0.359,0.775,0.852,1.468,1.478,2.08c0.626,0.612,1.364,1.172,2.212,1.68s1.762,1.009,2.741,1.504
	c0.927,0.469,1.792,0.915,2.594,1.338c0.803,0.423,1.498,0.866,2.085,1.328c0.587,0.462,1.047,0.974,1.38,1.533
	c0.333,0.56,0.499,1.218,0.499,1.973c0,1.406-0.499,2.484-1.498,3.232c-0.999,0.749-2.51,1.123-4.533,1.123
	c-0.587,0-1.227-0.059-1.919-0.176s-1.38-0.283-2.065-0.498c-0.686-0.215-1.338-0.479-1.958-0.791
	c-0.62-0.313-1.152-0.664-1.596-1.055v3.867C46.725,125.115,47.211,125.339,47.818,125.541z"/>
<path d="M80.251,106l-5.698,15.43c-0.196,0.677-0.326,1.172-0.392,1.484h-0.117c-0.209-0.82-0.346-1.328-0.412-1.523L68.21,106
	h-3.563l7.832,19.961l-1.606,3.789c-0.809,1.927-2.023,2.891-3.642,2.891c-0.574,0-1.208-0.117-1.899-0.352v2.871
	c0.561,0.169,1.259,0.254,2.095,0.254c2.976,0,5.287-2.07,6.931-6.211L83.58,106H80.251z"/>
<path d="M91.177,126.469c1.044,0,2.042-0.117,2.996-0.352c0.953-0.234,1.794-0.592,2.526-1.074c0.731-0.481,1.315-1.087,1.752-1.816
	c0.437-0.729,0.656-1.588,0.656-2.578c0-0.807-0.134-1.504-0.401-2.09c-0.268-0.586-0.649-1.104-1.146-1.553
	s-1.096-0.853-1.801-1.211c-0.705-0.358-1.501-0.706-2.389-1.045c-0.666-0.26-1.26-0.501-1.782-0.723
	c-0.522-0.221-0.966-0.469-1.332-0.742s-0.643-0.586-0.832-0.938c-0.189-0.352-0.284-0.788-0.284-1.309
	c0-0.417,0.094-0.797,0.284-1.143c0.189-0.345,0.457-0.641,0.803-0.889c0.346-0.247,0.76-0.439,1.243-0.576s1.025-0.205,1.625-0.205
	c1.918,0,3.615,0.482,5.09,1.445v-3.242c-1.371-0.599-2.924-0.898-4.66-0.898c-0.979,0-1.929,0.124-2.849,0.371
	c-0.92,0.248-1.74,0.615-2.458,1.104c-0.718,0.488-1.292,1.094-1.723,1.816c-0.431,0.723-0.646,1.553-0.646,2.49
	c0,0.769,0.114,1.439,0.343,2.012c0.228,0.573,0.568,1.084,1.018,1.533s1.011,0.853,1.684,1.211c0.672,0.358,1.452,0.713,2.34,1.064
	c0.64,0.248,1.237,0.485,1.792,0.713c0.555,0.228,1.038,0.485,1.449,0.771c0.411,0.287,0.737,0.615,0.979,0.986
	c0.241,0.371,0.362,0.824,0.362,1.357c0,1.875-1.41,2.813-4.229,2.813c-2.102,0-4.027-0.645-5.776-1.934v3.438
	C87.326,126.071,89.114,126.469,91.177,126.469L91.177,126.469z"/>
<path d="M113.341,123.07c-0.587,0.443-1.286,0.664-2.095,0.664c-1.057,0-1.814-0.286-2.271-0.859
	c-0.457-0.573-0.686-1.53-0.686-2.871v-11.27h5.052V106h-5.052v-5.918l-3.211,1.035V106h-3.446v2.734h3.446v11.836
	c0,3.906,1.755,5.859,5.267,5.859c1.24,0,2.238-0.208,2.996-0.625V123.07z"/>
<path d="M133.429,115.121c0-3.008-0.718-5.358-2.154-7.051c-1.436-1.692-3.465-2.539-6.089-2.539c-2.624,0-4.82,0.98-6.589,2.939
	c-1.769,1.96-2.653,4.496-2.653,7.607c0,3.294,0.809,5.85,2.428,7.666s3.844,2.725,6.677,2.725c2.897,0,5.228-0.638,6.99-1.914
	v-3.008c-1.893,1.484-3.968,2.227-6.226,2.227c-2.01,0-3.59-0.605-4.738-1.816c-1.149-1.211-1.75-2.93-1.801-5.156h14.156V115.121z
	 M119.313,114.086c0.248-1.745,0.9-3.157,1.958-4.238c1.057-1.081,2.343-1.621,3.857-1.621c1.566,0,2.79,0.515,3.671,1.543
	c0.881,1.029,1.328,2.468,1.341,4.316H119.313z"/>
<path d="M166.753,113.676c0-5.43-2.206-8.145-6.618-8.145c-2.95,0-5.169,1.38-6.657,4.141c-0.378-1.237-1.077-2.236-2.095-2.998
	s-2.212-1.143-3.583-1.143c-2.729,0-4.804,1.211-6.227,3.633h-0.078V106h-3.211v20h3.211v-11.406c0-1.888,0.457-3.421,1.371-4.6
	c0.914-1.178,2.075-1.768,3.485-1.768c3.042,0,4.562,1.966,4.562,5.898V126h3.211v-11.406c0-1.745,0.479-3.242,1.439-4.492
	s2.125-1.875,3.495-1.875c1.618,0,2.771,0.495,3.456,1.484c0.685,0.99,1.028,2.591,1.028,4.805V126h3.211V113.676z"/>
</svg>
