<?xml version="1.0" encoding="utf-8"?>
<!-- Generator: Adobe Illustrator 16.0.0, SVG Export Plug-In . SVG Version: 6.00 Build 0)  -->
<!DOCTYPE svg PUBLIC "-//W3C//DTD SVG 1.1//EN" "http://www.w3.org/Graphics/SVG/1.1/DTD/svg11.dtd">
<svg version="1.1" id="Layer_1" xmlns="http://www.w3.org/2000/svg" xmlns:xlink="http://www.w3.org/1999/xlink" x="0px" y="0px"
	 width="356px" height="356px" viewBox="0 0 356 356" enable-background="new 0 0 356 356" xml:space="preserve">
<path d="M0,50h16v85.333H0V50z"/>
<path fill="#ED1F24" d="M0,134.988h16v87.023H0V134.988z"/>
<path fill="#FFCD05" d="M0,222.041h16V306H0V222.041z"/>
<path d="M55.984,174.441c2.65,0,4.845-0.742,6.585-2.227c1.74-1.484,2.61-3.424,2.61-5.82c0-1.927-0.574-3.493-1.721-4.697
	c-1.147-1.204-2.677-1.917-4.588-2.139v-0.078c1.529-0.495,2.729-1.328,3.599-2.5c0.87-1.172,1.305-2.552,1.305-4.141
	c0-1.901-0.719-3.444-2.156-4.629s-3.381-1.777-5.833-1.777h-8.069v28.008H55.984z M54.857,149.402c3.625,0,5.438,1.361,5.438,4.082
	c0,1.576-0.521,2.796-1.563,3.662s-2.472,1.299-4.291,1.299H51.04v-9.043H54.857z M54.857,161.395c4.562,0,6.842,1.654,6.842,4.961
	c0,1.589-0.537,2.839-1.611,3.75c-1.075,0.912-2.588,1.367-4.539,1.367H51.04v-10.078H54.857z"/>
<path d="M86.874,154.441h-3.243v11.523c0,1.862-0.511,3.369-1.533,4.521s-2.324,1.729-3.906,1.729c-3.27,0-4.904-2.109-4.904-6.328
	v-11.445h-3.224v11.953c0,5.677,2.413,8.516,7.238,8.516c2.821,0,4.904-1.211,6.249-3.633h0.079v3.164h3.243L86.874,154.441
	L86.874,154.441z"/>
<path d="M110.229,162.215c0-2.669-0.587-4.71-1.76-6.123c-1.173-1.413-2.867-2.119-5.082-2.119c-2.901,0-5.116,1.263-6.645,3.789
	h-0.079v-3.32H93.42v20h3.243v-11.406c0-1.836,0.531-3.356,1.592-4.561c1.062-1.204,2.403-1.807,4.024-1.807
	c3.138,0,4.707,2.123,4.707,6.367v11.406h3.243V162.215z"/>
<path d="M133.625,144.832h-3.244v12.383h-0.079c-1.266-2.161-3.29-3.242-6.071-3.242c-2.809,0-5.056,0.996-6.744,2.988
	s-2.531,4.642-2.531,7.949c0,3.086,0.761,5.524,2.284,7.314c1.522,1.791,3.556,2.686,6.101,2.686c3.138,0,5.458-1.289,6.961-3.867
	h0.079v3.398h3.244V144.832z M128.69,170.281c-1.127,1.289-2.594,1.934-4.4,1.934c-1.833,0-3.292-0.667-4.38-2.002
	c-1.087-1.334-1.631-3.154-1.631-5.459c0-2.526,0.566-4.505,1.701-5.938c1.134-1.432,2.689-2.148,4.667-2.148
	c1.661,0,3.032,0.56,4.113,1.68c1.081,1.12,1.622,2.487,1.622,4.102v2.949C130.381,167.365,129.817,168.992,128.69,170.281z"/>
<path d="M156.465,163.563c0-3.008-0.725-5.358-2.175-7.051c-1.45-1.692-3.5-2.539-6.15-2.539s-4.868,0.98-6.654,2.939
	c-1.787,1.96-2.68,4.496-2.68,7.607c0,3.294,0.817,5.85,2.452,7.666c1.635,1.816,3.882,2.725,6.744,2.725
	c2.927,0,5.28-0.638,7.06-1.914v-3.008c-1.912,1.484-4.008,2.227-6.289,2.227c-2.03,0-3.625-0.605-4.786-1.816
	c-1.161-1.211-1.767-2.93-1.819-5.156h14.298L156.465,163.563L156.465,163.563z M142.207,162.527c0.25-1.745,0.91-3.157,1.978-4.238
	s2.366-1.621,3.896-1.621c1.582,0,2.818,0.515,3.708,1.543c0.89,1.029,1.341,2.468,1.354,4.316H142.207z"/>
<path d="M165.563,174.91c1.055,0,2.063-0.117,3.025-0.352s1.813-0.592,2.551-1.074c0.738-0.481,1.328-1.087,1.77-1.816
	c0.441-0.729,0.663-1.588,0.663-2.578c0-0.807-0.136-1.504-0.406-2.09s-0.656-1.104-1.157-1.553
	c-0.501-0.449-1.107-0.854-1.819-1.211s-1.516-0.706-2.413-1.045c-0.672-0.26-1.272-0.501-1.8-0.723
	c-0.527-0.221-0.976-0.469-1.345-0.742c-0.369-0.273-0.649-0.586-0.84-0.938s-0.287-0.788-0.287-1.309
	c0-0.417,0.095-0.797,0.287-1.143c0.191-0.345,0.461-0.641,0.811-0.889c0.349-0.247,0.768-0.439,1.256-0.576
	c0.488-0.137,1.035-0.205,1.642-0.205c1.938,0,3.652,0.482,5.142,1.445v-3.242c-1.384-0.599-2.954-0.898-4.707-0.898
	c-0.989,0-1.948,0.124-2.877,0.371c-0.93,0.248-1.757,0.615-2.482,1.104c-0.725,0.489-1.305,1.094-1.74,1.816
	c-0.435,0.722-0.653,1.553-0.653,2.49c0,0.769,0.116,1.439,0.346,2.012c0.23,0.573,0.574,1.084,1.028,1.533
	c0.455,0.449,1.021,0.853,1.701,1.211c0.679,0.358,1.467,0.713,2.363,1.064c0.646,0.248,1.249,0.485,1.81,0.713
	c0.56,0.228,1.048,0.485,1.463,0.771c0.416,0.287,0.745,0.615,0.989,0.986c0.244,0.371,0.366,0.824,0.366,1.357
	c0,1.875-1.424,2.813-4.271,2.813c-2.123,0-4.067-0.645-5.834-1.934v3.438C161.673,174.513,163.479,174.91,165.563,174.91
	L165.563,174.91z"/>
<path d="M187.949,171.512c-0.594,0.443-1.299,0.664-2.116,0.664c-1.067,0-1.833-0.286-2.294-0.859
	c-0.461-0.573-0.691-1.53-0.691-2.871v-11.27h5.103v-2.734h-5.103v-5.918l-3.244,1.035v4.883h-3.479v2.734h3.479v11.836
	c0,3.906,1.773,5.859,5.32,5.859c1.252,0,2.262-0.208,3.026-0.625L187.949,171.512L187.949,171.512z"/>
<path d="M206.775,161.434c0-4.974-2.381-7.461-7.14-7.461c-2.598,0-4.892,0.625-6.882,1.875v3.281
	c1.964-1.641,4.166-2.461,6.605-2.461c2.781,0,4.173,1.699,4.173,5.098l-6.071,0.84c-4.457,0.612-6.686,2.787-6.686,6.523
	c0,1.745,0.57,3.145,1.711,4.199c1.141,1.055,2.72,1.582,4.736,1.582c2.742,0,4.818-1.198,6.229-3.594h0.079v3.125h3.242v-13.007
	H206.775z M203.532,166.316c0,1.706-0.524,3.115-1.572,4.229c-1.048,1.113-2.376,1.67-3.985,1.67c-1.174,0-2.113-0.309-2.817-0.928
	c-0.705-0.618-1.058-1.416-1.058-2.393c0-1.341,0.381-2.275,1.146-2.803c0.764-0.527,1.898-0.895,3.4-1.104l4.886-0.664V166.316z"/>
<path d="M230.17,154.441h-3.243v2.773h-0.079c-1.318-2.161-3.342-3.242-6.07-3.242c-2.875,0-5.139,1.003-6.793,3.008
	s-2.482,4.707-2.482,8.105c0,2.995,0.768,5.381,2.305,7.158c1.535,1.777,3.563,2.666,6.08,2.666c3.098,0,5.418-1.276,6.961-3.828
	h0.079v2.188c0,5.234-2.491,7.852-7.475,7.852c-2.07,0-4.246-0.625-6.526-1.875v3.203c1.872,0.938,4.061,1.406,6.566,1.406
	c7.119,0,10.679-3.672,10.679-11.017L230.17,154.441L230.17,154.441z M225.216,170.301c-1.141,1.276-2.62,1.914-4.44,1.914
	c-1.793,0-3.232-0.667-4.32-2.002c-1.088-1.334-1.631-3.115-1.631-5.342c0-2.591,0.566-4.606,1.701-6.045
	c1.133-1.438,2.701-2.158,4.707-2.158c1.621,0,2.976,0.566,4.063,1.699c1.087,1.133,1.631,2.494,1.631,4.082v2.949
	C226.927,167.391,226.355,169.025,225.216,170.301z"/>
<path d="M240.928,174.91c1.055,0,2.063-0.117,3.026-0.352c0.962-0.234,1.813-0.592,2.551-1.074c0.738-0.481,1.328-1.087,1.771-1.816
	c0.44-0.729,0.662-1.588,0.662-2.578c0-0.807-0.135-1.504-0.404-2.09c-0.271-0.586-0.656-1.104-1.157-1.553
	c-0.501-0.449-1.106-0.854-1.819-1.211c-0.711-0.358-1.516-0.706-2.412-1.045c-0.672-0.26-1.272-0.501-1.801-0.723
	c-0.527-0.221-0.976-0.469-1.345-0.742s-0.649-0.586-0.84-0.938c-0.191-0.352-0.287-0.788-0.287-1.309
	c0-0.417,0.095-0.797,0.287-1.143c0.19-0.345,0.461-0.641,0.812-0.889c0.35-0.247,0.768-0.439,1.256-0.576
	c0.487-0.137,1.035-0.205,1.642-0.205c1.938,0,3.651,0.482,5.142,1.445v-3.242c-1.384-0.599-2.953-0.898-4.707-0.898
	c-0.988,0-1.947,0.124-2.877,0.371c-0.929,0.248-1.757,0.615-2.482,1.104c-0.725,0.489-1.305,1.094-1.739,1.816
	c-0.435,0.722-0.652,1.553-0.652,2.49c0,0.769,0.115,1.439,0.347,2.012c0.229,0.573,0.574,1.084,1.028,1.533
	c0.455,0.449,1.021,0.853,1.701,1.211c0.679,0.358,1.466,0.713,2.363,1.064c0.646,0.248,1.249,0.485,1.81,0.713
	s1.049,0.485,1.463,0.771c0.416,0.287,0.745,0.615,0.989,0.986s0.366,0.824,0.366,1.357c0,1.875-1.424,2.813-4.271,2.813
	c-2.123,0-4.068-0.645-5.834-1.934v3.438C237.039,174.513,238.846,174.91,240.928,174.91L240.928,174.91z"/>
<path d="M276.229,154.441l-4.113,15.078c-0.198,0.69-0.311,1.289-0.336,1.797h-0.158c-0.066-0.716-0.165-1.315-0.296-1.797
	l-4.192-15.078h-2.966l-4.667,15c-0.197,0.651-0.316,1.263-0.355,1.836h-0.158c-0.053-0.742-0.146-1.341-0.277-1.797l-4.191-15.039
	h-3.401l6.13,20h3.243l4.528-14.355c0.237-0.742,0.377-1.348,0.416-1.816h0.08c0.051,0.69,0.157,1.309,0.315,1.855l4.172,14.316
	h3.362l6.07-20H276.229z"/>
<path d="M297.685,161.434c0-4.974-2.38-7.461-7.139-7.461c-2.598,0-4.892,0.625-6.882,1.875v3.281
	c1.964-1.641,4.166-2.461,6.605-2.461c2.781,0,4.172,1.699,4.172,5.098l-6.07,0.84c-4.457,0.612-6.684,2.787-6.684,6.523
	c0,1.745,0.569,3.145,1.709,4.199c1.141,1.055,2.72,1.582,4.736,1.582c2.742,0,4.818-1.198,6.229-3.594h0.08v3.125h3.242
	L297.685,161.434L297.685,161.434z M294.441,166.316c0,1.706-0.523,3.115-1.571,4.229c-1.048,1.113-2.376,1.67-3.985,1.67
	c-1.174,0-2.113-0.309-2.818-0.928c-0.705-0.618-1.058-1.416-1.058-2.393c0-1.341,0.382-2.275,1.147-2.803
	c0.764-0.527,1.898-0.895,3.4-1.104l4.885-0.664V166.316L294.441,166.316z"/>
<path d="M320.605,162.117c0-5.43-2.281-8.145-6.843-8.145c-2.875,0-5.089,1.263-6.645,3.789h-0.079v-12.93h-3.244v29.609h3.244
	v-11.328c0-1.888,0.541-3.434,1.622-4.639c1.081-1.204,2.413-1.807,3.995-1.807c3.138,0,4.707,2.083,4.707,6.25v11.523h3.243
	L320.605,162.117L320.605,162.117z"/>
<path d="M329.959,144.832h-3.243v29.609h3.243V144.832z"/>
<path d="M77.393,57.992l-5.737,21.563c-0.3,1.12-0.477,2.019-0.528,2.695h-0.079c-0.104-1.002-0.261-1.875-0.47-2.617l-5.952-21.641
	h-3.152l-6.207,21.484c-0.34,1.185-0.542,2.123-0.607,2.813h-0.098c-0.065-0.977-0.222-1.914-0.47-2.813l-5.972-21.484h-3.623
	L52.723,86h3.818l5.815-20.508c0.261-0.911,0.431-1.849,0.509-2.813h0.078c0.052,1.029,0.203,1.979,0.451,2.852L69.169,86h3.857
	l7.93-28.008H77.393z"/>
<path d="M97.56,72.992c0-4.974-2.356-7.461-7.068-7.461c-2.571,0-4.843,0.625-6.813,1.875v3.281c1.945-1.641,4.125-2.461,6.54-2.461
	c2.754,0,4.131,1.699,4.131,5.098l-6.011,0.84c-4.412,0.612-6.618,2.787-6.618,6.523c0,1.745,0.564,3.145,1.694,4.199
	c1.129,1.055,2.692,1.582,4.689,1.582c2.715,0,4.771-1.198,6.168-3.594h0.078V86h3.211L97.56,72.992L97.56,72.992z M94.349,77.875
	c0,1.706-0.519,3.115-1.557,4.229s-2.353,1.67-3.945,1.67c-1.162,0-2.092-0.309-2.79-0.928c-0.698-0.618-1.047-1.416-1.047-2.393
	c0-1.341,0.378-2.275,1.136-2.803c0.757-0.527,1.879-0.895,3.368-1.104l4.836-0.664L94.349,77.875L94.349,77.875z"/>
<path d="M120.252,73.676c0-5.43-2.258-8.145-6.774-8.145c-2.846,0-5.039,1.263-6.579,3.789h-0.078V56.39h-3.211V86h3.211V74.672
	c0-1.888,0.535-3.434,1.605-4.639c1.07-1.204,2.389-1.807,3.955-1.807c3.106,0,4.66,2.083,4.66,6.25V86h3.211V73.676z"/>
<path d="M129.513,56.391h-3.211V86h3.211V56.391z"/>
<path d="M139.156,60.316c0.411-0.403,0.617-0.892,0.617-1.465c0-0.599-0.206-1.097-0.617-1.494c-0.411-0.397-0.91-0.596-1.498-0.596
	c-0.575,0-1.064,0.199-1.469,0.596c-0.405,0.397-0.607,0.896-0.607,1.494c0,0.599,0.202,1.094,0.607,1.484
	c0.405,0.39,0.894,0.586,1.469,0.586C138.246,60.922,138.745,60.72,139.156,60.316z M139.225,66h-3.211v20h3.211V66z"/>
<path d="M162.368,73.773c0-2.669-0.581-4.71-1.743-6.123s-2.839-2.119-5.032-2.119c-2.872,0-5.064,1.263-6.579,3.789h-0.078V66
	h-3.211v20h3.211V74.594c0-1.836,0.525-3.356,1.576-4.561c1.051-1.204,2.379-1.807,3.985-1.807c3.106,0,4.66,2.123,4.66,6.367V86
	h3.211V73.773L162.368,73.773z"/>
<path d="M178.325,56.313c-0.575-0.234-1.351-0.352-2.33-0.352c-1.814,0-3.329,0.609-4.542,1.826
	c-1.214,1.218-1.821,2.875-1.821,4.971V66h-3.426v2.734h3.426V86h3.191V68.734h4.699V66h-4.699v-3.086
	c0-2.825,1.123-4.238,3.368-4.238c0.796,0,1.508,0.176,2.134,0.527V56.313z"/>
<path d="M196.622,83.588c1.808-1.92,2.712-4.476,2.712-7.666c0-3.255-0.839-5.801-2.516-7.637c-1.678-1.836-4.012-2.754-7-2.754
	c-3.133,0-5.619,0.944-7.461,2.832c-1.84,1.888-2.76,4.512-2.76,7.871c0,3.086,0.883,5.563,2.652,7.432s4.134,2.803,7.098,2.803
	C192.391,86.469,194.814,85.509,196.622,83.588z M194.371,70.258c1.115,1.354,1.674,3.281,1.674,5.781
	c0,2.474-0.559,4.382-1.674,5.723c-1.116,1.341-2.712,2.012-4.787,2.012c-2.037,0-3.662-0.684-4.875-2.051
	c-1.213-1.367-1.82-3.235-1.82-5.605c0-2.461,0.6-4.391,1.801-5.791c1.201-1.399,2.832-2.1,4.895-2.1
	C191.659,68.227,193.254,68.904,194.371,70.258z"/>
<path d="M214.919,65.922c-0.444-0.182-1.083-0.273-1.918-0.273c-1.162,0-2.212,0.394-3.151,1.182
	c-0.94,0.788-1.639,1.885-2.096,3.291h-0.078V66h-3.211v20h3.211V75.805c0-2.227,0.461-3.984,1.381-5.273
	c0.92-1.289,2.064-1.934,3.436-1.934c1.058,0,1.867,0.215,2.428,0.645L214.919,65.922L214.919,65.922z"/>
<path d="M246.794,73.676c0-5.43-2.206-8.145-6.618-8.145c-2.949,0-5.169,1.38-6.656,4.141c-0.379-1.237-1.078-2.236-2.096-2.998
	c-1.018-0.762-2.212-1.143-3.583-1.143c-2.729,0-4.804,1.211-6.227,3.633h-0.078V66h-3.211v20h3.211V74.594
	c0-1.888,0.457-3.421,1.371-4.6c0.913-1.178,2.075-1.768,3.485-1.768c3.041,0,4.562,1.966,4.562,5.898V86h3.211V74.594
	c0-1.745,0.479-3.242,1.438-4.492c0.961-1.25,2.125-1.875,3.496-1.875c1.617,0,2.771,0.495,3.455,1.484
	c0.687,0.99,1.028,2.591,1.028,4.805V86h3.211V73.676L246.794,73.676z"/>
<path d="M267.216,72.992c0-4.974-2.356-7.461-7.067-7.461c-2.572,0-4.844,0.625-6.814,1.875v3.281
	c1.945-1.641,4.125-2.461,6.54-2.461c2.754,0,4.131,1.699,4.131,5.098l-6.011,0.84c-4.412,0.612-6.618,2.787-6.618,6.523
	c0,1.745,0.563,3.145,1.692,4.199c1.13,1.054,2.693,1.582,4.689,1.582c2.715,0,4.771-1.198,6.167-3.594h0.078V86h3.211V72.992
	H267.216z M264.005,77.875c0,1.706-0.519,3.115-1.557,4.229c-1.038,1.113-2.353,1.67-3.945,1.67c-1.162,0-2.092-0.309-2.791-0.928
	c-0.698-0.618-1.047-1.416-1.047-2.393c0-1.341,0.378-2.275,1.136-2.803c0.758-0.527,1.879-0.895,3.368-1.104l4.836-0.664V77.875z"
	/>
<path d="M282.566,83.07c-0.588,0.443-1.287,0.664-2.096,0.664c-1.057,0-1.813-0.286-2.271-0.859s-0.687-1.53-0.687-2.871v-11.27
	h5.053V66h-5.053v-5.918l-3.211,1.035V66h-3.445v2.734h3.445V80.57c0,3.906,1.756,5.859,5.268,5.859c1.24,0,2.238-0.208,2.996-0.625
	V83.07z"/>
<path d="M289.997,60.316c0.412-0.403,0.617-0.892,0.617-1.465c0-0.599-0.206-1.097-0.617-1.494s-0.91-0.596-1.498-0.596
	c-0.575,0-1.063,0.199-1.469,0.596c-0.404,0.397-0.606,0.896-0.606,1.494c0,0.599,0.202,1.094,0.606,1.484
	c0.405,0.391,0.894,0.586,1.469,0.586C289.086,60.922,289.586,60.72,289.997,60.316z M290.064,66h-3.211v20h3.211V66z"/>
<path d="M312.22,83.588c1.809-1.92,2.711-4.476,2.711-7.666c0-3.255-0.839-5.801-2.516-7.637c-1.678-1.836-4.011-2.754-7-2.754
	c-3.132,0-5.619,0.944-7.459,2.832c-1.841,1.888-2.761,4.512-2.761,7.871c0,3.086,0.884,5.563,2.652,7.432
	c1.77,1.869,4.135,2.803,7.099,2.803C307.987,86.469,310.412,85.509,312.22,83.588z M309.968,70.258
	c1.116,1.354,1.674,3.281,1.674,5.781c0,2.474-0.558,4.382-1.674,5.723c-1.116,1.341-2.711,2.012-4.787,2.012
	c-2.036,0-3.661-0.684-4.875-2.051c-1.214-1.367-1.82-3.235-1.82-5.605c0-2.461,0.601-4.391,1.802-5.791
	c1.201-1.399,2.832-2.1,4.895-2.1C307.256,68.227,308.852,68.904,309.968,70.258z"/>
<path d="M336.704,73.773c0-2.669-0.581-4.71-1.743-6.123s-2.839-2.119-5.032-2.119c-2.872,0-5.063,1.263-6.579,3.789h-0.079V66
	h-3.211v20h3.211V74.594c0-1.836,0.525-3.356,1.577-4.561c1.051-1.204,2.379-1.807,3.984-1.807c3.105,0,4.66,2.123,4.66,6.367V86
	h3.211L336.704,73.773L336.704,73.773z"/>
<path d="M346.905,86.469c1.044,0,2.042-0.117,2.996-0.352c0.952-0.234,1.794-0.592,2.525-1.074c0.731-0.481,1.315-1.087,1.752-1.816
	c0.438-0.729,0.656-1.588,0.656-2.578c0-0.807-0.134-1.504-0.401-2.09s-0.648-1.104-1.146-1.553
	c-0.497-0.449-1.097-0.853-1.801-1.211c-0.705-0.358-1.501-0.706-2.39-1.045c-0.666-0.26-1.26-0.501-1.781-0.723
	c-0.522-0.221-0.967-0.469-1.332-0.742c-0.366-0.273-0.644-0.586-0.832-0.938c-0.189-0.352-0.284-0.788-0.284-1.309
	c0-0.417,0.095-0.797,0.284-1.143c0.188-0.345,0.457-0.641,0.803-0.889c0.346-0.247,0.76-0.439,1.243-0.576
	c0.482-0.137,1.023-0.205,1.625-0.205c1.919,0,3.616,0.482,5.091,1.445v-3.24c-1.371-0.599-2.924-0.898-4.66-0.898
	c-0.979,0-1.929,0.124-2.849,0.371c-0.92,0.248-1.739,0.615-2.457,1.104c-0.718,0.488-1.292,1.094-1.724,1.816
	c-0.431,0.722-0.646,1.553-0.646,2.49c0,0.769,0.114,1.439,0.343,2.012c0.229,0.573,0.567,1.084,1.019,1.533
	c0.449,0.449,1.011,0.853,1.684,1.211c0.672,0.358,1.452,0.713,2.34,1.064c0.64,0.248,1.237,0.485,1.792,0.713
	s1.038,0.485,1.449,0.771c0.412,0.287,0.737,0.615,0.979,0.986c0.242,0.371,0.362,0.824,0.362,1.357c0,1.875-1.41,2.813-4.229,2.813
	c-2.103,0-4.027-0.645-5.776-1.934v3.438C343.054,86.071,344.842,86.469,346.905,86.469L346.905,86.469z"/>
<path d="M47.818,125.541c0.607,0.202,1.25,0.371,1.929,0.508c0.678,0.137,1.344,0.241,1.997,0.313
	c0.652,0.071,1.201,0.107,1.645,0.107c1.332,0,2.598-0.134,3.798-0.4c1.201-0.267,2.262-0.7,3.182-1.299s1.651-1.377,2.193-2.334
	s0.813-2.125,0.813-3.506c0-1.042-0.199-1.966-0.597-2.773c-0.398-0.807-0.937-1.543-1.616-2.207
	c-0.679-0.664-1.468-1.27-2.369-1.816c-0.9-0.547-1.854-1.067-2.858-1.563c-0.979-0.481-1.844-0.924-2.594-1.328
	c-0.751-0.403-1.387-0.82-1.909-1.25c-0.522-0.43-0.917-0.905-1.185-1.426s-0.401-1.139-0.401-1.855
	c0-0.768,0.176-1.419,0.529-1.953c0.353-0.534,0.809-0.97,1.371-1.309c0.561-0.338,1.201-0.583,1.919-0.732
	c0.717-0.149,1.436-0.225,2.153-0.225c2.598,0,4.725,0.573,6.383,1.719V98.52c-1.267-0.664-3.283-0.996-6.05-0.996
	c-1.214,0-2.405,0.15-3.573,0.449c-1.168,0.3-2.209,0.755-3.123,1.367c-0.914,0.612-1.651,1.39-2.212,2.334
	c-0.562,0.944-0.842,2.054-0.842,3.33c0,1.042,0.179,1.95,0.539,2.725c0.359,0.775,0.852,1.468,1.478,2.08s1.364,1.172,2.212,1.68
	c0.848,0.508,1.762,1.009,2.741,1.504c0.927,0.469,1.792,0.915,2.594,1.338c0.803,0.423,1.498,0.866,2.085,1.328
	c0.587,0.462,1.047,0.974,1.38,1.533c0.333,0.56,0.499,1.218,0.499,1.973c0,1.406-0.499,2.484-1.498,3.232
	c-0.999,0.749-2.51,1.123-4.533,1.123c-0.587,0-1.227-0.059-1.919-0.176c-0.692-0.117-1.38-0.283-2.065-0.498
	c-0.686-0.215-1.338-0.479-1.958-0.791c-0.62-0.313-1.152-0.664-1.596-1.055v3.867C46.725,125.115,47.211,125.339,47.818,125.541z"
	/>
<path d="M80.251,106l-5.698,15.43c-0.196,0.677-0.326,1.172-0.392,1.484h-0.117c-0.209-0.82-0.346-1.328-0.412-1.523L68.21,106
	h-3.563l7.832,19.961l-1.606,3.789c-0.809,1.927-2.023,2.891-3.642,2.891c-0.574,0-1.208-0.117-1.899-0.352v2.871
	c0.561,0.169,1.259,0.254,2.095,0.254c2.976,0,5.287-2.07,6.931-6.211L83.58,106H80.251z"/>
<path d="M91.177,126.469c1.044,0,2.042-0.117,2.996-0.352c0.953-0.234,1.794-0.592,2.526-1.074c0.731-0.481,1.315-1.087,1.752-1.816
	s0.656-1.588,0.656-2.578c0-0.807-0.134-1.504-0.401-2.09c-0.268-0.586-0.649-1.104-1.146-1.553
	c-0.497-0.449-1.096-0.853-1.801-1.211c-0.705-0.358-1.501-0.706-2.389-1.045c-0.666-0.26-1.26-0.501-1.782-0.723
	c-0.522-0.221-0.966-0.469-1.332-0.742c-0.366-0.273-0.643-0.586-0.832-0.938s-0.284-0.788-0.284-1.309
	c0-0.417,0.094-0.797,0.284-1.143c0.189-0.345,0.457-0.641,0.803-0.889c0.346-0.247,0.76-0.439,1.243-0.576
	c0.483-0.137,1.025-0.205,1.625-0.205c1.918,0,3.615,0.482,5.09,1.445v-3.242c-1.371-0.599-2.924-0.898-4.66-0.898
	c-0.979,0-1.929,0.124-2.849,0.371c-0.92,0.248-1.74,0.615-2.458,1.104c-0.718,0.488-1.292,1.094-1.723,1.816
	c-0.431,0.723-0.646,1.553-0.646,2.49c0,0.769,0.114,1.439,0.343,2.012c0.228,0.573,0.568,1.084,1.018,1.533
	c0.45,0.449,1.011,0.853,1.684,1.211c0.672,0.358,1.452,0.713,2.34,1.064c0.64,0.248,1.237,0.485,1.792,0.713
	c0.555,0.229,1.038,0.485,1.449,0.771c0.411,0.287,0.737,0.615,0.979,0.986c0.241,0.371,0.362,0.824,0.362,1.357
	c0,1.875-1.41,2.813-4.229,2.813c-2.102,0-4.027-0.645-5.776-1.934v3.438C87.326,126.071,89.114,126.469,91.177,126.469
	L91.177,126.469z"/>
<path d="M113.341,123.07c-0.587,0.443-1.286,0.664-2.095,0.664c-1.057,0-1.814-0.286-2.271-0.859s-0.686-1.53-0.686-2.871v-11.27
	h5.052V106h-5.052v-5.918l-3.211,1.035V106h-3.446v2.734h3.446v11.836c0,3.906,1.755,5.859,5.267,5.859
	c1.24,0,2.238-0.208,2.996-0.625V123.07z"/>
<path d="M133.429,115.121c0-3.008-0.718-5.358-2.154-7.051c-1.436-1.692-3.465-2.539-6.089-2.539s-4.82,0.979-6.589,2.938
	c-1.769,1.96-2.653,4.496-2.653,7.607c0,3.294,0.809,5.85,2.428,7.666c1.619,1.816,3.844,2.725,6.677,2.725
	c2.897,0,5.228-0.638,6.99-1.914v-3.008c-1.893,1.484-3.968,2.227-6.226,2.227c-2.01,0-3.59-0.605-4.738-1.816
	c-1.149-1.211-1.75-2.93-1.801-5.156h14.156L133.429,115.121L133.429,115.121z M119.313,114.086c0.248-1.745,0.9-3.157,1.958-4.238
	c1.057-1.081,2.343-1.621,3.857-1.621c1.566,0,2.79,0.515,3.671,1.543c0.881,1.029,1.328,2.468,1.341,4.316H119.313z"/>
<path d="M166.753,113.676c0-5.43-2.206-8.145-6.618-8.145c-2.95,0-5.169,1.38-6.657,4.141c-0.378-1.237-1.077-2.236-2.095-2.998
	c-1.018-0.762-2.212-1.143-3.583-1.143c-2.729,0-4.804,1.211-6.227,3.633h-0.078V106h-3.211v20h3.211v-11.406
	c0-1.888,0.457-3.421,1.371-4.6c0.914-1.178,2.075-1.768,3.485-1.768c3.042,0,4.562,1.966,4.562,5.898V126h3.211v-11.406
	c0-1.745,0.479-3.242,1.439-4.492s2.125-1.875,3.495-1.875c1.618,0,2.771,0.495,3.456,1.484c0.685,0.99,1.028,2.591,1.028,4.805V126
	h3.211V113.676L166.753,113.676z"/>
</svg>
